<svg width="122" height="130" viewBox="0 0 122 130" fill="none" xmlns="http://www.w3.org/2000/svg">
<path d="M85.8608 9.64929C88.2907 5.89664 94.0983 1.23326 98.5006 0.395575C101.931 -0.257119 105.295 0.0859445 108.762 0.12322C110.756 0.144688 112.963 -0.136001 114.943 0.167223C116.224 0.352105 117.451 0.813723 118.537 1.51993C123.13 4.53732 122.728 10.9281 119.813 15.0135C118.019 17.5278 116.181 19.9104 114.302 22.3614L105.407 33.9713C88.3647 56.2818 71.1667 78.4729 53.8138 100.542C50.9043 104.32 48.0246 108.121 45.1752 111.945C43.2937 114.481 41.4056 117.158 39.4055 119.597C35.7276 124.706 31.1067 128.679 24.7246 129.686C24.5309 129.715 24.4378 129.72 24.2431 129.731C23.0857 129.964 16.7359 130.128 15.9641 129.866C8.55305 129.201 5.97979 122.595 6.68854 116.042C7.18008 111.5 8.59373 110.012 11.3564 106.562C11.7919 105.867 12.8903 104.457 13.407 103.76C15.2776 101.28 17.1623 98.8121 19.061 96.3534C23.121 91.0003 27.0298 85.5531 31.1754 80.263C32.2282 78.7346 33.7648 76.8388 34.9178 75.336L41.741 66.4519L64.5921 36.9169C69.8152 29.9853 75.0898 23.0928 80.4151 16.2397C81.4152 14.9697 84.9153 10.4249 85.8608 9.64929Z" fill="#7969EA"/>
<path d="M18.345 100.073C18.3632 100.199 18.3433 100.122 18.4435 100.293L18.4762 100.178C20.3711 100.007 22.0619 99.2692 24.0361 99.0716C31.1525 98.3603 37.821 97.6073 44.6125 95.2543C59.332 90.1116 71.1512 78.9204 77.0911 64.5026C78.0314 62.2104 78.8349 59.8477 79.6297 57.461C82.1621 49.8558 84.8894 40.3062 93.73 38.0646C94.4084 37.8927 95.8998 37.3539 96.5017 37.6581L96.5278 37.8058C96.0154 38.2631 95.5035 38.6792 95.0258 39.1788C94.3111 39.9266 93.8652 40.7519 92.9515 41.2784C91.692 42.0041 90.4799 43.4575 89.4452 44.4954C88.5746 45.3688 87.6178 46.1472 86.7984 47.0721C84.1096 50.1077 82.1443 54.2743 81.2346 58.1942C81.05 58.9898 81.0474 60.101 81.5115 60.801C82.0937 61.0509 83.3346 60.6319 83.729 60.2039C86.5513 57.1408 89.1922 53.9015 91.5349 50.4606C92.5099 49.0285 93.9962 47.4917 95.0793 46.0963C97.1162 43.5009 98.9613 40.7605 100.6 37.8969C101.116 38.742 99.7564 40.3001 99.6778 40.8752L99.8685 40.8544C100.186 40.2139 104.677 34.3832 105.312 33.7888L105.407 33.9713C88.3647 56.2818 71.1667 78.4729 53.8138 100.542C50.9043 104.32 48.0246 108.121 45.1752 111.945C43.2937 114.481 41.4056 117.158 39.4055 119.597C35.7276 124.706 31.1067 128.679 24.7246 129.686C24.5309 129.715 24.4378 129.72 24.2431 129.731C23.0857 129.964 16.7359 130.128 15.9641 129.866C8.55305 129.201 5.97979 122.595 6.68854 116.042C7.18008 111.5 8.59373 110.012 11.3564 106.562C11.7919 105.867 12.8903 104.457 13.407 103.76C15.2776 101.28 17.1623 98.8121 19.061 96.3534C23.121 91.0002 27.0298 85.5531 31.1754 80.263C32.8559 79.6649 40.0974 69.0761 41.0997 68.7888L41.2207 69.0964C41.4052 68.6563 41.3028 68.7044 41.634 68.5207L41.7877 68.6499C41.8283 69.2256 41.5174 69.6069 41.1804 70.0523C39.1316 71.5946 36.6308 75.0722 35.0539 77.1282C33.1911 79.5559 31.0308 82.1556 29.416 84.7382C27.5861 86.3243 25.9987 88.9068 24.4169 90.8454C23.0515 92.519 21.7911 94.7716 20.4649 96.5168C19.7974 97.5304 18.2613 99.2489 17.7865 100.314L18.0311 100.23L17.8614 100.354C18.1267 100.146 18.0528 100.144 18.345 100.073Z" fill="#CABEF9"/>
<path d="M8.90214 113.884C10.2739 109.658 14.5929 104.42 18.0458 101.568C18.127 101.501 18.4128 101.457 18.5209 101.442C18.959 101.669 20.1526 104.407 20.4805 105.03C21.5663 107.205 22.8831 108.481 24.5153 110.199C25.9444 111.703 27.4906 113.321 28.8238 114.926C30.6387 117.112 34.4503 120.863 33.164 123.988C32.7556 124.98 31.1055 125.772 30.5234 126.539C29.8454 126.774 27.2247 127.627 26.5838 127.773C23.9901 128.357 19.1628 128.481 16.5476 128.033C14.432 127.66 12.5524 126.46 11.3248 124.697C9.04032 121.479 8.26365 117.734 8.90214 113.884Z" fill="#7A68EC"/>
<path d="M12.8656 113.133C14.1796 113.038 15.0099 115.082 15.6571 116.095C17.5505 119.063 21.2245 119.93 23.0188 123.062C24.0713 124.901 21.2942 125.099 20.2874 125.627C18.9611 125.729 17.4268 126.24 16.0583 125.865C14.5557 125.44 13.2816 124.439 12.5125 123.08C11.1782 120.721 10.5896 118.503 11.227 115.757C11.3951 115.032 12.1955 113.504 12.8656 113.133Z" fill="#4D3BF0"/>
<path d="M24.2431 129.731C23.2827 129.505 18.804 129.822 17.3231 129.594C14.9308 129.226 12.822 128.913 11.1524 126.926C8.66891 123.969 7.29018 120.47 7.6147 116.58C7.68871 115.693 8.2235 114.446 8.90214 113.884C8.26365 117.734 9.04032 121.479 11.3248 124.697C12.5524 126.46 14.432 127.661 16.5476 128.033C19.1628 128.481 23.9901 128.357 26.5838 127.773C27.2247 127.627 29.8454 126.774 30.5234 126.539L30.7076 126.531C30.8777 126.296 30.7916 126.36 31.0399 126.235L31.0797 126.366C30.7591 126.938 30.1066 126.654 30.166 127.34L30.1047 127.469L30.2471 127.553C30.961 127.525 31.5934 127.01 32.1844 126.596C33.4326 125.723 34.6019 124.741 35.6788 123.664C36.9231 122.421 37.9931 121.011 39.1363 119.677C39.2261 119.65 39.3158 119.623 39.4055 119.597C35.7276 124.706 31.1067 128.679 24.7246 129.686C24.5309 129.715 24.4378 129.72 24.2431 129.731Z" fill="#B5A8F5"/>
<path d="M11.3564 106.562C11.379 107.298 9.29704 109.675 8.79482 110.6C6.25615 115.274 6.4425 122.046 9.92548 126.206C10.4207 126.78 11.803 128.383 12.4509 128.71C13.1117 129.046 15.2845 129.351 15.9641 129.866C8.55305 129.201 5.97979 122.595 6.68854 116.042C7.18008 111.5 8.59373 110.012 11.3564 106.562Z" fill="#CDC1FA"/>
<path d="M85.8608 9.6493C86.6556 9.47264 87.767 7.13635 88.6561 6.84274C88.6422 7.03318 88.6367 7.29838 88.5871 7.47077C88.2698 8.57183 89.5691 10.4765 90.2693 11.3865C91.9788 13.6081 93.9525 15.8244 95.6571 18.0835C97.1991 20.127 102.235 23.9591 103.271 26.0754L103.465 26.1518C103.672 26.2342 103.711 26.2454 103.885 26.3931C104.02 26.8993 104.022 27.3413 104.344 27.6802C105.377 27.812 108.705 26.5086 109.302 26.5115L109.265 26.6369C106.978 27.5584 103.395 28.1388 100.962 28.421C92.8401 29.3631 84.708 30.3311 77.1716 33.7331C64.7159 39.4644 54.2694 50.5509 48.9186 63.1379C48.0045 65.3304 47.1773 67.5584 46.439 69.8173C44.155 76.8548 41.843 85.6343 34.2782 88.6932C33.0476 89.1899 31.701 89.5883 30.3868 89.7869C28.9735 89.9995 26.9244 89.4291 25.7315 90.2152C24.9381 90.7375 24.3089 92.2082 23.7756 93.0093C23.3068 93.7131 20.164 98.1029 19.7273 98.2407C19.5025 98.3112 19.3594 98.3507 19.2052 98.5333C19.3285 98.6796 19.2573 98.6177 19.4182 98.7181C18.8713 99.5683 18.679 99.6131 18.345 100.073C18.0528 100.144 18.1267 100.146 17.8614 100.354L18.0311 100.23L17.7865 100.314C18.2613 99.2489 19.7974 97.5304 20.4649 96.5168C21.7911 94.7716 23.0515 92.5191 24.4169 90.8454C25.9987 88.9069 27.5861 86.3243 29.416 84.7382C31.0308 82.1556 33.1911 79.5559 35.0539 77.1282C36.6308 75.0722 39.1316 71.5946 41.1804 70.0523C41.5174 69.6069 41.8283 69.2256 41.7877 68.6499L41.634 68.5207C41.3028 68.7044 41.4052 68.6563 41.2207 69.0964L41.0997 68.7888C40.0974 69.0761 32.8559 79.6649 31.1754 80.263C32.2282 78.7346 33.7648 76.8388 34.9178 75.336L41.741 66.4519L64.5921 36.9169C69.8152 29.9854 75.0898 23.0928 80.4151 16.2397C81.4152 14.9698 84.9153 10.4249 85.8608 9.6493Z" fill="#CFC2F9"/>
<path d="M29.416 84.7382C31.0308 82.1556 33.1911 79.5559 35.0539 77.1282C36.6308 75.0722 39.1316 71.5946 41.1804 70.0523L41.0157 70.4379C41.4507 70.5821 42.3779 70.7636 42.4889 71.3041C43.243 74.9825 39.1246 78.7624 36.9715 81.2029C35.1273 83.2931 33.7246 84.7446 31.5878 86.4439C30.4225 87.3549 28.7744 88.0972 27.4319 88.7723C27.5814 88.3931 28.092 87.3432 28.0465 87.089C27.8856 87.435 27.7601 87.8249 27.451 88.0171C27.3834 87.3229 29.1147 85.3651 29.416 84.7382Z" fill="#7969EA"/>
<path d="M85.8608 9.64929C88.2907 5.89664 94.0983 1.23326 98.5006 0.395575C101.931 -0.257119 105.295 0.0859445 108.762 0.12322C110.756 0.144688 112.963 -0.136001 114.943 0.167223C116.224 0.352105 117.451 0.813723 118.537 1.51993C123.13 4.53732 122.728 10.9281 119.813 15.0135C118.019 17.5278 116.181 19.9104 114.302 22.3614L105.407 33.9713L105.312 33.7888C105.695 32.8951 106.842 32.1243 106.874 31.4559L106.72 31.3162L106.513 31.407C106.265 31.9147 106.202 32.1951 105.64 32.3538L105.474 32.2443L105.405 31.8984C105.517 31.4288 106.45 30.1437 106.722 29.6426C106.795 29.5092 107.505 29.0482 107.681 28.9303C107.814 28.6385 107.825 28.6002 108.013 28.3457L108.176 28.3309C108.146 28.634 108.11 28.714 108.029 29.0041C108.214 29.2841 108.191 29.3011 108.49 29.4328L108.684 29.3353C109.143 28.2418 110.064 27.7459 110.387 27.1775C110.941 26.2038 113.583 23.18 113.704 22.5288C113.672 22.5166 113.64 22.5043 113.608 22.4921L113.476 22.445C113.731 22.1708 113.767 22.1967 113.869 21.8595L113.729 21.6645L113.776 21.8574C113.567 22.113 113.191 22.3496 112.854 22.3395L112.777 22.1752L112.72 22.7259L112.616 22.7975L112.428 22.6759C112.204 21.1842 115.331 18.5253 116.205 17.3155C118.12 14.6649 120.781 10.8632 120.177 7.41682C119.985 6.31949 119.102 4.78319 118.189 4.14737C117.595 3.73435 116.996 3.27422 116.351 2.94665C115.363 2.44476 113.956 2.26234 112.856 2.18255C110.634 2.02149 100.833 2.36669 99.111 2.95434C98.3226 3.22349 97.5393 3.05901 96.7208 3.14969C96.2531 3.20149 95.8209 3.35561 95.3633 3.41767L95.4281 3.13762C94.1641 3.64132 92.7381 4.13476 91.4918 4.6705C91.1048 4.83691 88.9709 6.32632 88.8601 6.82276L88.6561 6.84273C87.767 7.13635 86.6556 9.47263 85.8608 9.64929Z" fill="#B5A8F5"/>
<path d="M0.0729667 30.8208C-0.15982 28.5558 0.192815 25.0478 0.72813 22.7803C2.46815 15.2328 7.15082 8.69347 13.7351 4.61603C19.7733 0.972755 26.9518 -0.29034 33.8706 1.07283C35.5757 1.41728 36.914 2.10971 38.4789 2.45672C40.7867 0.95214 44.3595 0.570627 46.9924 1.18284C52.1512 2.4046 56.9067 6.54047 60.223 10.5538C65.7282 17.2162 66.5283 27.5127 60.5025 34.1323C59.1463 35.6223 57.7732 37.6599 56.3034 38.9661C55.4665 40.8671 54.6517 42.8166 53.5663 44.6213C50.3563 49.9584 45.2529 54.6095 39.4797 56.9979C36.9203 58.0566 33.7744 58.7765 31.0484 58.9337C30.2771 59.0919 28.8058 59.1312 28.0085 59.124C12.7534 58.9861 -0.0391923 46.0743 0.0729667 30.8208ZM57.6849 30.9947L57.7546 31.5087L57.8799 31.5877C58.496 31.3325 59.2658 29.2899 59.4165 28.6469C60.281 24.9591 60.2092 20.9012 55.7845 19.7652C56.7489 22.3395 58.2142 28.3922 57.6849 30.9947Z" fill="#4D3BF0"/>
<path d="M38.4789 2.45673C40.7867 0.952147 44.3595 0.570634 46.9924 1.18285C52.1512 2.40461 56.9067 6.54048 60.223 10.5538C65.7282 17.2162 66.5283 27.5127 60.5025 34.1323C59.1463 35.6223 57.7732 37.6599 56.3034 38.9661C54.8576 39.4987 53.6746 40.3621 52.0103 40.3036C45.2172 40.0651 41.2473 32.5269 37.6794 27.6704C35.6539 24.968 33.3994 22.4452 30.941 20.1301C29.2121 18.4807 27.298 17.0316 25.4442 15.534C24.3802 14.6744 22.1125 13.391 21.5556 12.1695C21.3387 11.7013 21.3233 11.1647 21.5126 10.6846C21.9887 9.45117 25.7432 8.24009 27.0354 7.7428L34.3648 4.91424C35.7333 4.40157 37.9488 3.6567 39.2064 3.03797L39.3557 2.96353C39.0878 2.78356 38.7649 2.61576 38.4789 2.45673ZM57.6849 30.9947L57.7546 31.5087L57.8799 31.5877C58.496 31.3325 59.2658 29.2899 59.4165 28.647C60.281 24.9591 60.2092 20.9012 55.7845 19.7653C56.7489 22.3395 58.2142 28.3922 57.6849 30.9947Z" fill="#ECEBFC"/>
<path d="M46.9108 36.7088C44.7552 35.2749 41.9466 31.4127 40.5606 29.1849C40.0442 28.392 39.1557 27.5988 38.6529 26.8296C36.5916 23.6767 33.9398 21.2232 31.2148 18.6484C29.1841 16.7296 26.2372 15.085 24.5588 12.8891C24.371 12.6432 24.4796 11.2187 24.774 10.9286C27.6205 9.05566 33.5164 7.73981 36.2836 10.3738C38.5787 12.5585 39.8559 13.7403 42.3263 15.207C44.7182 16.627 47.2329 16.683 49.7993 16.0123C50.2347 15.8889 52.9245 15.0946 53.0207 14.9237L52.8378 14.6234C53.4672 15.0197 55.1041 18.3658 55.4802 19.2247C55.6042 19.5089 55.588 19.5525 55.7845 19.7653C56.7489 22.3395 58.2142 28.3922 57.6849 30.9947C57.5172 32.4096 57.2856 33.8163 56.9905 35.2102C56.9397 35.4233 56.7641 36.0882 56.7445 36.2687C55.9838 38.5888 51.6893 39.3004 49.6246 38.4815C48.5699 38.0632 47.829 37.3086 46.9108 36.7088Z" fill="#B5A8F5"/>
<path d="M56.9905 35.2102C54.9794 36.0589 53.1786 38.1013 50.8469 36.0042C48.2226 33.8383 47.2556 31.5063 45.9111 28.7564C42.8206 22.4352 46.5496 23.056 51.27 21.0368C51.9943 20.727 54.8533 19.1995 55.4802 19.2247C55.6042 19.5089 55.588 19.5525 55.7845 19.7653C56.7489 22.3395 58.2142 28.3922 57.6849 30.9947C57.5172 32.4096 57.2856 33.8163 56.9905 35.2102Z" fill="#8170EC"/>
<path d="M46.9108 36.7088C46.8501 35.8638 44.897 35.1779 44.9575 34.0066C45.2939 33.8074 45.369 34.0551 45.6577 34.3348C47.4575 36.0793 48.0674 37.8076 50.742 38.1527C53.2589 38.4775 54.773 37.741 56.7445 36.2687C55.9838 38.5888 51.6893 39.3004 49.6246 38.4815C48.5699 38.0632 47.829 37.3086 46.9108 36.7088Z" fill="#CDC1FA"/>
<path d="M0.0729687 30.8208C0.447484 30.1911 0.719845 28.6251 0.976979 27.8616C3.29726 20.9723 10.1643 20.2345 15.9465 23.5801C23.3377 27.8568 28.5641 35.9901 31.0659 44.0326C32.1348 47.6495 32.6669 52.5642 31.9238 56.256C31.7328 57.2049 31.1642 58.3658 31.0484 58.9338C30.2771 59.0919 28.8058 59.1312 28.0085 59.124C12.7534 58.9861 -0.0391903 46.0744 0.0729687 30.8208Z" fill="#CDC1FA"/>
<path d="M83.2488 75.6169C86.5113 74.2359 90.7699 73.3419 94.2895 73.4829C96.0812 73.5855 97.5778 73.6602 99.3497 74.018C112.104 76.8302 120.776 87.5525 121.332 100.564C121.365 101.342 121.158 102.449 121.049 103.239C120.314 110.226 116.833 116.635 111.374 121.055C105.684 125.672 98.921 127.414 91.6904 126.638C91.2942 126.596 90.8986 126.55 90.5034 126.5C87.3381 129.823 81.4213 130.843 77.4378 128.682C75.4997 127.631 74.2334 126.417 72.5581 125.034C71.4717 124.137 70.0901 123.528 68.978 122.656C66.9725 120.903 64.3956 117.193 63.5603 114.709C61.8156 109.518 62.9286 104.258 65.2072 99.4337C65.6005 98.6006 67.3799 95.4701 68.0973 95.2309C68.3569 93.2176 68.8475 91.5845 69.5923 89.7058C72.1185 83.3988 77.0238 78.3383 83.2488 75.6169Z" fill="#4D3BF0"/>
<path d="M68.0973 95.2308C68.4817 95.0792 69.1933 94.2835 69.5314 93.9673C76.218 87.7224 83.4009 97.7771 86.9101 102.046C88.468 103.957 90.1618 105.752 91.9781 107.419C93.3633 108.693 94.8399 109.834 96.3614 110.94C98.1647 112.249 103.601 115.52 104.483 117.198C104.689 117.589 104.722 118.146 104.554 118.555C103.729 120.567 93.0062 124.715 90.5034 126.5C87.3381 129.823 81.4213 130.843 77.4378 128.682C75.4997 127.631 74.2334 126.417 72.5581 125.034C71.4717 124.137 70.0901 123.528 68.978 122.656C66.9725 120.903 64.3956 117.193 63.5603 114.709C61.8156 109.518 62.9286 104.258 65.2072 99.4337C65.6005 98.6006 67.3799 95.4701 68.0973 95.2308Z" fill="#ECEAFD"/>
<path d="M73.1914 94.4063C75.5482 94.1222 75.8884 95.2309 77.7978 95.2148L77.2479 95.6656C77.5373 95.877 77.7543 96.0949 78.0131 96.3406C77.8653 96.0437 77.8717 96.0266 77.8039 95.6965L77.9222 95.5321L78.2706 95.5118L78.0535 95.5694L78.0677 95.6666C78.978 96.2882 79.1397 95.9774 79.9488 96.9002C80.632 97.6799 80.8985 98.529 81.4907 99.2179L81.6081 99.0332L81.7152 99.0342L81.7941 99.6484C82.0534 99.9207 82.3324 100.259 82.6567 100.425L82.4457 99.9389C83.4713 100.586 85.9072 103.575 86.7216 104.623C90.2887 109.215 94.9338 112.026 99.5427 115.388C99.7842 115.565 99.8963 116.466 100.112 116.8C100.274 116.602 100.174 116.647 100.385 116.601C100.612 117.048 100.629 117.756 100.682 118.281C99.7062 119.496 99.3419 119.504 97.8393 120.029C96.8305 120.472 96.098 120.618 95.0251 120.837C91.4714 121.563 88.8765 118.814 86.1144 116.866C82.9218 114.614 80.4521 115.151 76.7842 115.974C75.969 116.156 75.1723 116.52 74.3448 116.655C73.3488 116.265 71.6061 113.384 71.0406 112.466C68.9155 109.017 67.0825 101.678 68.1607 97.7034C69.9741 96.19 70.693 94.8602 73.1914 94.4063Z" fill="#A294F1"/>
<path d="M99.3497 74.018C112.104 76.8302 120.776 87.5525 121.332 100.564C121.365 101.342 121.158 102.449 121.049 103.239C120.73 103.77 120.655 104.308 120.455 104.893C119.805 106.799 119.024 107.937 117.423 109.165C114.541 109.312 113.763 108.522 111.452 106.924C108.511 104.548 107.16 102.717 105.01 99.7189C104.033 98.2642 103.161 96.7422 102.399 95.1636C102.156 95.0568 101.981 94.9104 101.767 94.7545C101.692 93.9374 100.055 92.4934 99.938 90.4288L100.181 90.337C100.235 90.0337 100.22 89.9386 100.21 89.6342C100.147 88.9795 99.3288 86.7857 99.1379 85.5649C98.7152 82.8605 98.5288 80.0205 98.6739 77.2799C98.7202 76.4084 99.0534 75.2965 99.1535 74.159L99.3497 74.018Z" fill="#FDFDFE"/>
<path d="M100.21 89.6342C100.964 91.9423 101.569 93.0605 102.399 95.1636C102.156 95.0568 101.981 94.9104 101.767 94.7545C101.692 93.9374 100.055 92.4934 99.938 90.4288L100.181 90.337C100.235 90.0337 100.22 89.9386 100.21 89.6342Z" fill="#CDC1FA"/>
<path d="M83.2488 75.6169C86.5113 74.2359 90.7699 73.3419 94.2895 73.4829C96.0812 73.5855 97.5778 73.6602 99.3497 74.018L99.1535 74.159C99.0534 75.2965 98.7202 76.4084 98.6739 77.2799C98.5288 80.0206 98.7152 82.8605 99.1379 85.5649C99.3288 86.7857 100.147 88.9795 100.21 89.6342C100.22 89.9386 100.235 90.0337 100.181 90.337L99.938 90.4288C100.055 92.4934 101.692 93.9374 101.767 94.7545C101.981 94.9104 102.156 95.0568 102.399 95.1636C103.161 96.7422 104.033 98.2642 105.01 99.7189C107.16 102.717 108.511 104.548 111.452 106.924C113.763 108.522 114.541 109.312 117.423 109.165C116.605 109.775 115.262 110.306 114.247 110.354C107.492 111.41 99.7831 106.191 95.2181 101.559C89.1958 95.4477 84.4694 87.3144 83.343 78.7143C83.2198 77.7733 83.254 76.5782 83.2488 75.6169Z" fill="#AC9EF3"/>
<path d="M94.2895 73.4829C96.0812 73.5855 97.5778 73.6602 99.3497 74.018L99.1535 74.159C99.0534 75.2965 98.7202 76.4084 98.6739 77.2799C98.5288 80.0205 98.7152 82.8605 99.1379 85.5649C99.3288 86.7857 100.147 88.9795 100.21 89.6342C100.22 89.9386 100.235 90.0337 100.181 90.337L99.938 90.4288C98.9215 88.454 97.9037 86.5731 97.1065 84.4754C95.7904 81.0138 94.729 77.4038 93.4428 73.9646C91 67.4323 96.209 81.8651 93.2809 73.7051C93.6647 73.6431 93.9123 73.5822 94.2895 73.4829Z" fill="#CDC1FA"/>
<path d="M111.452 106.924C113.763 108.522 114.541 109.312 117.423 109.165C116.605 109.775 115.262 110.306 114.247 110.354L114.306 110.167C114.747 110.065 115.173 109.988 115.589 109.811C115.292 109.547 114.673 109.668 114.271 109.469C113.081 108.879 112.028 108.132 111.452 106.924Z" fill="#CDC1FA"/>
<path d="M101.767 94.7545C101.981 94.9104 102.156 95.0568 102.399 95.1636C103.161 96.7422 104.033 98.2642 105.01 99.7189L104.878 99.6505C104.699 99.5554 104.251 99.3162 104.132 99.1699C103.305 98.1616 102.134 95.9465 101.767 94.7545Z" fill="#CDC1FA"/>
</svg>
