<svg width="360" height="360" viewBox="0 0 360 360" fill="none" xmlns="http://www.w3.org/2000/svg">
<path d="M0 20C0 8.95431 8.95431 0 20 0H340C351.046 0 360 8.95431 360 20V340C360 351.046 351.046 360 340 360H20C8.95431 360 0 351.046 0 340V20Z" fill="url(#paint0_linear_1_53)"/>
<path d="M0 20C0 8.95431 8.95431 0 20 0H340C351.046 0 360 8.95431 360 20V340C360 351.046 351.046 360 340 360H20C8.95431 360 0 351.046 0 340V20Z" fill="url(#paint1_linear_1_53)" fill-opacity="0.2"/>
<path d="M208.861 96.6493C211.291 92.8966 217.098 88.2333 221.501 87.3956C224.931 86.7429 228.295 87.0859 231.762 87.1232C233.756 87.1447 235.963 86.864 237.943 87.1672C239.224 87.3521 240.451 87.8137 241.537 88.5199C246.13 91.5373 245.728 97.9281 242.813 102.014C241.019 104.528 239.181 106.91 237.302 109.361L228.407 120.971C211.365 143.282 194.167 165.473 176.814 187.542C173.904 191.32 171.025 195.121 168.175 198.945C166.294 201.481 164.406 204.158 162.405 206.597C158.728 211.706 154.107 215.679 147.725 216.686C147.531 216.715 147.438 216.72 147.243 216.731C146.086 216.964 139.736 217.128 138.964 216.866C131.553 216.201 128.98 209.595 129.689 203.042C130.18 198.5 131.594 197.012 134.356 193.562C134.792 192.867 135.89 191.457 136.407 190.76C138.278 188.28 140.162 185.812 142.061 183.353C146.121 178 150.03 172.553 154.175 167.263C155.228 165.735 156.765 163.839 157.918 162.336L164.741 153.452L187.592 123.917C192.815 116.985 198.09 110.093 203.415 103.24C204.415 101.97 207.915 97.4249 208.861 96.6493Z" fill="#7969EA"/>
<path d="M141.345 187.073C141.363 187.199 141.343 187.122 141.444 187.293L141.476 187.178C143.371 187.007 145.062 186.269 147.036 186.072C154.153 185.36 160.821 184.607 167.612 182.254C182.332 177.112 194.151 165.92 200.091 151.503C201.031 149.21 201.835 146.848 202.63 144.461C205.162 136.856 207.889 127.306 216.73 125.065C217.408 124.893 218.9 124.354 219.502 124.658L219.528 124.806C219.015 125.263 218.503 125.679 218.026 126.179C217.311 126.927 216.865 127.752 215.951 128.278C214.692 129.004 213.48 130.457 212.445 131.495C211.575 132.369 210.618 133.147 209.798 134.072C207.11 137.108 205.144 141.274 204.235 145.194C204.05 145.99 204.047 147.101 204.512 147.801C205.094 148.051 206.335 147.632 206.729 147.204C209.551 144.141 212.192 140.901 214.535 137.461C215.51 136.029 216.996 134.492 218.079 133.096C220.116 130.501 221.961 127.761 223.6 124.897C224.116 125.742 222.756 127.3 222.678 127.875L222.869 127.854C223.186 127.214 227.677 121.383 228.312 120.789L228.407 120.971C211.365 143.282 194.167 165.473 176.814 187.542C173.904 191.32 171.025 195.121 168.175 198.945C166.294 201.481 164.406 204.158 162.405 206.597C158.728 211.706 154.107 215.679 147.725 216.686C147.531 216.715 147.438 216.72 147.243 216.731C146.086 216.964 139.736 217.128 138.964 216.866C131.553 216.201 128.98 209.595 129.689 203.042C130.18 198.5 131.594 197.012 134.356 193.562C134.792 192.867 135.89 191.457 136.407 190.76C138.278 188.28 140.162 185.812 142.061 183.353C146.121 178 150.03 172.553 154.175 167.263C155.856 166.665 163.097 156.076 164.1 155.789L164.221 156.096C164.405 155.656 164.303 155.704 164.634 155.521L164.788 155.65C164.828 156.226 164.517 156.607 164.18 157.052C162.132 158.595 159.631 162.072 158.054 164.128C156.191 166.556 154.031 169.156 152.416 171.738C150.586 173.324 148.999 175.907 147.417 177.845C146.052 179.519 144.791 181.772 143.465 183.517C142.797 184.53 141.261 186.249 140.787 187.314L141.031 187.23L140.861 187.354C141.127 187.146 141.053 187.144 141.345 187.073Z" fill="#CABEF9"/>
<path d="M131.902 200.884C133.274 196.658 137.593 191.42 141.046 188.568C141.127 188.501 141.413 188.457 141.521 188.442C141.959 188.669 143.153 191.407 143.48 192.03C144.566 194.205 145.883 195.481 147.515 197.199C148.944 198.703 150.491 200.321 151.824 201.926C153.639 204.112 157.45 207.863 156.164 210.988C155.756 211.98 154.106 212.772 153.523 213.539C152.845 213.774 150.225 214.627 149.584 214.773C146.99 215.357 142.163 215.481 139.548 215.033C137.432 214.66 135.552 213.46 134.325 211.697C132.04 208.479 131.264 204.734 131.902 200.884Z" fill="#7A68EC"/>
<path d="M135.866 200.133C137.18 200.038 138.01 202.082 138.657 203.095C140.551 206.063 144.224 206.93 146.019 210.062C147.071 211.901 144.294 212.099 143.287 212.627C141.961 212.729 140.427 213.24 139.058 212.865C137.556 212.44 136.282 211.439 135.513 210.08C134.178 207.721 133.59 205.503 134.227 202.757C134.395 202.032 135.195 200.504 135.866 200.133Z" fill="#4D3BF0"/>
<path d="M147.243 216.731C146.283 216.505 141.804 216.822 140.323 216.594C137.931 216.226 135.822 215.913 134.152 213.926C131.669 210.969 130.29 207.47 130.615 203.58C130.689 202.693 131.224 201.446 131.902 200.884C131.264 204.734 132.04 208.479 134.325 211.697C135.552 213.46 137.432 214.661 139.548 215.033C142.163 215.481 146.99 215.357 149.584 214.773C150.225 214.627 152.845 213.774 153.523 213.539L153.708 213.531C153.878 213.296 153.792 213.36 154.04 213.235L154.08 213.366C153.759 213.938 153.107 213.654 153.166 214.34L153.105 214.469L153.247 214.553C153.961 214.525 154.593 214.01 155.184 213.596C156.433 212.723 157.602 211.741 158.679 210.664C159.923 209.421 160.993 208.011 162.136 206.677C162.226 206.65 162.316 206.623 162.405 206.597C158.728 211.706 154.107 215.679 147.725 216.686C147.531 216.715 147.438 216.72 147.243 216.731Z" fill="#B5A8F5"/>
<path d="M134.356 193.562C134.379 194.298 132.297 196.675 131.795 197.6C129.256 202.274 129.442 209.046 132.925 213.206C133.421 213.78 134.803 215.383 135.451 215.71C136.112 216.046 138.285 216.351 138.964 216.866C131.553 216.201 128.98 209.595 129.689 203.042C130.18 198.5 131.594 197.012 134.356 193.562Z" fill="#CDC1FA"/>
<path d="M208.861 96.6493C209.656 96.4726 210.767 94.1364 211.656 93.8427C211.642 94.0332 211.637 94.2984 211.587 94.4708C211.27 95.5718 212.569 97.4765 213.269 98.3865C214.979 100.608 216.953 102.824 218.657 105.083C220.199 107.127 225.235 110.959 226.271 113.075L226.465 113.152C226.672 113.234 226.711 113.245 226.885 113.393C227.02 113.899 227.022 114.341 227.344 114.68C228.377 114.812 231.705 113.509 232.302 113.511L232.265 113.637C229.978 114.558 226.395 115.139 223.962 115.421C215.84 116.363 207.708 117.331 200.172 120.733C187.716 126.464 177.269 137.551 171.919 150.138C171.004 152.33 170.177 154.558 169.439 156.817C167.155 163.855 164.843 172.634 157.278 175.693C156.048 176.19 154.701 176.588 153.387 176.787C151.974 176.999 149.924 176.429 148.732 177.215C147.938 177.738 147.309 179.208 146.776 180.009C146.307 180.713 143.164 185.103 142.727 185.241C142.503 185.311 142.359 185.351 142.205 185.533C142.328 185.68 142.257 185.618 142.418 185.718C141.871 186.568 141.679 186.613 141.345 187.073C141.053 187.144 141.127 187.146 140.861 187.354L141.031 187.23L140.787 187.314C141.261 186.249 142.797 184.53 143.465 183.517C144.791 181.772 146.051 179.519 147.417 177.845C148.999 175.907 150.586 173.324 152.416 171.738C154.031 169.156 156.191 166.556 158.054 164.128C159.631 162.072 162.132 158.595 164.18 157.052C164.517 156.607 164.828 156.226 164.788 155.65L164.634 155.521C164.303 155.704 164.405 155.656 164.221 156.096L164.1 155.789C163.097 156.076 155.856 166.665 154.175 167.263C155.228 165.735 156.765 163.839 157.918 162.336L164.741 153.452L187.592 123.917C192.815 116.985 198.09 110.093 203.415 103.24C204.415 101.97 207.915 97.4249 208.861 96.6493Z" fill="#CFC2F9"/>
<path d="M152.416 171.738C154.031 169.156 156.191 166.556 158.054 164.128C159.631 162.072 162.132 158.595 164.18 157.052L164.016 157.438C164.451 157.582 165.378 157.764 165.489 158.304C166.243 161.982 162.125 165.762 159.971 168.203C158.127 170.293 156.725 171.745 154.588 173.444C153.423 174.355 151.774 175.097 150.432 175.772C150.581 175.393 151.092 174.343 151.046 174.089C150.886 174.435 150.76 174.825 150.451 175.017C150.383 174.323 152.115 172.365 152.416 171.738Z" fill="#7969EA"/>
<path d="M208.861 96.6493C211.291 92.8966 217.098 88.2333 221.501 87.3956C224.931 86.7429 228.295 87.0859 231.762 87.1232C233.756 87.1447 235.963 86.864 237.943 87.1672C239.224 87.3521 240.451 87.8137 241.537 88.5199C246.13 91.5373 245.728 97.9281 242.813 102.014C241.019 104.528 239.181 106.91 237.302 109.361L228.407 120.971L228.312 120.789C228.695 119.895 229.842 119.124 229.874 118.456L229.72 118.316L229.513 118.407C229.265 118.915 229.202 119.195 228.64 119.354L228.474 119.244L228.405 118.898C228.517 118.429 229.45 117.144 229.722 116.643C229.795 116.509 230.505 116.048 230.681 115.93C230.814 115.639 230.825 115.6 231.013 115.346L231.176 115.331C231.146 115.634 231.11 115.714 231.029 116.004C231.214 116.284 231.191 116.301 231.49 116.433L231.684 116.335C232.143 115.242 233.064 114.746 233.387 114.178C233.941 113.204 236.583 110.18 236.704 109.529C236.672 109.517 236.64 109.504 236.608 109.492L236.476 109.445C236.731 109.171 236.767 109.197 236.869 108.86L236.729 108.664L236.776 108.857C236.567 109.113 236.191 109.35 235.854 109.339L235.777 109.175L235.72 109.726L235.616 109.797L235.428 109.676C235.204 108.184 238.331 105.525 239.205 104.316C241.12 101.665 243.781 97.8633 243.177 94.4168C242.985 93.3195 242.102 91.7832 241.189 91.1474C240.595 90.7343 239.996 90.2742 239.351 89.9466C238.363 89.4448 236.956 89.2623 235.856 89.1826C233.634 89.0215 223.833 89.3667 222.111 89.9543C221.323 90.2235 220.539 90.059 219.721 90.1497C219.253 90.2015 218.821 90.3556 218.363 90.4177L218.428 90.1376C217.164 90.6413 215.738 91.1348 214.492 91.6705C214.105 91.8369 211.971 93.3263 211.86 93.8228L211.656 93.8427C210.767 94.1363 209.656 96.4726 208.861 96.6493Z" fill="#B5A8F5"/>
<path d="M123.073 117.821C122.84 115.556 123.193 112.048 123.728 109.78C125.468 102.233 130.151 95.6935 136.735 91.616C142.773 87.9728 149.952 86.7097 156.871 88.0728C158.576 88.4173 159.914 89.1097 161.479 89.4567C163.787 87.9521 167.359 87.5706 169.992 88.1828C175.151 89.4046 179.907 93.5405 183.223 97.5538C188.728 104.216 189.528 114.513 183.502 121.132C182.146 122.622 180.773 124.66 179.303 125.966C178.466 127.867 177.652 129.817 176.566 131.621C173.356 136.958 168.253 141.609 162.48 143.998C159.92 145.057 156.774 145.777 154.048 145.934C153.277 146.092 151.806 146.131 151.008 146.124C135.753 145.986 122.961 133.074 123.073 117.821ZM180.685 117.995L180.755 118.509L180.88 118.588C181.496 118.332 182.266 116.29 182.417 115.647C183.281 111.959 183.209 107.901 178.784 106.765C179.749 109.339 181.214 115.392 180.685 117.995Z" fill="#4D3BF0"/>
<path d="M161.479 89.4567C163.787 87.9521 167.359 87.5706 169.992 88.1828C175.151 89.4046 179.907 93.5405 183.223 97.5538C188.728 104.216 189.528 114.513 183.502 121.132C182.146 122.622 180.773 124.66 179.303 125.966C177.858 126.499 176.675 127.362 175.01 127.304C168.217 127.065 164.247 119.527 160.679 114.67C158.654 111.968 156.399 109.445 153.941 107.13C152.212 105.481 150.298 104.032 148.444 102.534C147.38 101.674 145.113 100.391 144.556 99.1695C144.339 98.7013 144.323 98.1647 144.513 97.6846C144.989 96.4512 148.743 95.2401 150.035 94.7428L157.365 91.9142C158.733 91.4016 160.949 90.6567 162.206 90.038L162.356 89.9635C162.088 89.7836 161.765 89.6158 161.479 89.4567ZM180.685 117.995L180.755 118.509L180.88 118.588C181.496 118.333 182.266 116.29 182.417 115.647C183.281 111.959 183.209 107.901 178.784 106.765C179.749 109.34 181.214 115.392 180.685 117.995Z" fill="#ECEBFC"/>
<path d="M169.911 123.709C167.755 122.275 164.947 118.413 163.561 116.185C163.044 115.392 162.156 114.599 161.653 113.83C159.592 110.677 156.94 108.223 154.215 105.648C152.184 103.73 149.237 102.085 147.559 99.889C147.371 99.6432 147.48 98.2187 147.774 97.9286C150.621 96.0557 156.516 94.7398 159.284 97.3738C161.579 99.5585 162.856 100.74 165.326 102.207C167.718 103.627 170.233 103.683 172.799 103.012C173.235 102.889 175.924 102.095 176.021 101.924L175.838 101.623C176.467 102.02 178.104 105.366 178.48 106.225C178.604 106.509 178.588 106.552 178.784 106.765C179.749 109.339 181.214 115.392 180.685 117.995C180.517 119.41 180.286 120.816 179.991 122.21C179.94 122.423 179.764 123.088 179.744 123.269C178.984 125.589 174.689 126.3 172.625 125.481C171.57 125.063 170.829 124.309 169.911 123.709Z" fill="#B5A8F5"/>
<path d="M179.991 122.21C177.979 123.059 176.179 125.101 173.847 123.004C171.223 120.838 170.256 118.506 168.911 115.756C165.821 109.435 169.55 110.056 174.27 108.037C174.994 107.727 177.853 106.199 178.48 106.225C178.604 106.509 178.588 106.552 178.784 106.765C179.749 109.34 181.214 115.392 180.685 117.995C180.517 119.41 180.286 120.816 179.991 122.21Z" fill="#8170EC"/>
<path d="M169.911 123.709C169.85 122.864 167.897 122.178 167.957 121.007C168.294 120.807 168.369 121.055 168.658 121.335C170.457 123.079 171.067 124.808 173.742 125.153C176.259 125.478 177.773 124.741 179.744 123.269C178.984 125.589 174.689 126.3 172.625 125.481C171.57 125.063 170.829 124.309 169.911 123.709Z" fill="#CDC1FA"/>
<path d="M123.073 117.821C123.447 117.191 123.72 115.625 123.977 114.862C126.297 107.972 133.164 107.234 138.946 110.58C146.338 114.857 151.564 122.99 154.066 131.033C155.135 134.65 155.667 139.564 154.924 143.256C154.733 144.205 154.164 145.366 154.048 145.934C153.277 146.092 151.806 146.131 151.008 146.124C135.753 145.986 122.961 133.074 123.073 117.821Z" fill="#CDC1FA"/>
<path d="M206.249 162.617C209.511 161.236 213.77 160.342 217.29 160.483C219.081 160.585 220.578 160.66 222.35 161.018C235.104 163.83 243.776 174.553 244.332 187.564C244.365 188.342 244.158 189.449 244.049 190.239C243.314 197.226 239.833 203.635 234.374 208.055C228.684 212.672 221.921 214.414 214.69 213.638C214.294 213.596 213.899 213.55 213.503 213.5C210.338 216.823 204.421 217.843 200.438 215.682C198.5 214.631 197.233 213.417 195.558 212.034C194.472 211.137 193.09 210.528 191.978 209.656C189.973 207.903 187.396 204.193 186.56 201.709C184.816 196.518 185.929 191.258 188.207 186.434C188.6 185.601 190.38 182.47 191.097 182.231C191.357 180.218 191.847 178.584 192.592 176.706C195.118 170.399 200.024 165.338 206.249 162.617Z" fill="#4D3BF0"/>
<path d="M191.097 182.231C191.482 182.079 192.193 181.283 192.531 180.967C199.218 174.722 206.401 184.777 209.91 189.046C211.468 190.957 213.162 192.752 214.978 194.419C216.363 195.693 217.84 196.834 219.361 197.94C221.165 199.249 226.601 202.52 227.483 204.198C227.689 204.589 227.722 205.146 227.554 205.555C226.729 207.567 216.006 211.715 213.503 213.5C210.338 216.823 204.421 217.843 200.438 215.682C198.5 214.631 197.233 213.417 195.558 212.034C194.472 211.137 193.09 210.528 191.978 209.656C189.973 207.903 187.396 204.193 186.56 201.709C184.816 196.518 185.929 191.258 188.207 186.434C188.6 185.601 190.38 182.47 191.097 182.231Z" fill="#ECEAFD"/>
<path d="M196.191 181.406C198.548 181.122 198.888 182.231 200.798 182.215L200.248 182.666C200.537 182.877 200.754 183.095 201.013 183.341C200.865 183.044 200.872 183.027 200.804 182.697L200.922 182.532L201.271 182.512L201.054 182.569L201.068 182.667C201.978 183.288 202.14 182.977 202.949 183.9C203.632 184.68 203.898 185.529 204.491 186.218L204.608 186.033L204.715 186.034L204.794 186.648C205.053 186.921 205.332 187.259 205.657 187.425L205.446 186.939C206.471 187.586 208.907 190.575 209.722 191.623C213.289 196.215 217.934 199.026 222.543 202.388C222.784 202.565 222.896 203.466 223.112 203.8C223.274 203.602 223.174 203.647 223.385 203.601C223.612 204.048 223.629 204.756 223.682 205.281C222.706 206.496 222.342 206.504 220.839 207.029C219.831 207.472 219.098 207.618 218.025 207.837C214.471 208.563 211.876 205.814 209.114 203.866C205.922 201.614 203.452 202.151 199.784 202.974C198.969 203.156 198.172 203.52 197.345 203.655C196.349 203.265 194.606 200.384 194.041 199.466C191.916 196.017 190.082 188.678 191.161 184.703C192.974 183.19 193.693 181.86 196.191 181.406Z" fill="#A294F1"/>
<path d="M222.35 161.018C235.104 163.83 243.776 174.553 244.332 187.564C244.365 188.342 244.158 189.449 244.049 190.239C243.73 190.77 243.655 191.308 243.455 191.893C242.805 193.799 242.024 194.937 240.423 196.165C237.541 196.312 236.763 195.522 234.452 193.924C231.511 191.548 230.16 189.717 228.01 186.719C227.033 185.264 226.161 183.742 225.399 182.164C225.156 182.057 224.981 181.91 224.767 181.754C224.692 180.937 223.055 179.493 222.938 177.429L223.181 177.337C223.235 177.034 223.22 176.939 223.21 176.634C223.147 175.979 222.329 173.786 222.138 172.565C221.715 169.861 221.529 167.021 221.674 164.28C221.72 163.408 222.053 162.296 222.153 161.159L222.35 161.018Z" fill="#FDFDFE"/>
<path d="M223.21 176.634C223.964 178.942 224.569 180.061 225.399 182.164C225.156 182.057 224.981 181.91 224.767 181.755C224.692 180.937 223.055 179.493 222.938 177.429L223.181 177.337C223.235 177.034 223.22 176.939 223.21 176.634Z" fill="#CDC1FA"/>
<path d="M206.249 162.617C209.511 161.236 213.77 160.342 217.29 160.483C219.081 160.585 220.578 160.66 222.35 161.018L222.153 161.159C222.053 162.296 221.72 163.408 221.674 164.28C221.529 167.021 221.715 169.861 222.138 172.565C222.329 173.786 223.147 175.979 223.21 176.634C223.22 176.939 223.235 177.034 223.181 177.337L222.938 177.429C223.055 179.493 224.692 180.937 224.767 181.755C224.981 181.91 225.156 182.057 225.399 182.164C226.161 183.742 227.033 185.264 228.01 186.719C230.16 189.717 231.511 191.548 234.452 193.924C236.763 195.522 237.541 196.312 240.423 196.165C239.605 196.775 238.262 197.306 237.247 197.354C230.492 198.41 222.783 193.191 218.218 188.559C212.196 182.448 207.469 174.314 206.343 165.714C206.22 164.773 206.254 163.578 206.249 162.617Z" fill="#AC9EF3"/>
<path d="M217.29 160.483C219.081 160.585 220.578 160.66 222.35 161.018L222.153 161.159C222.053 162.296 221.72 163.408 221.674 164.28C221.529 167.021 221.715 169.861 222.138 172.565C222.329 173.786 223.147 175.979 223.21 176.634C223.22 176.939 223.235 177.034 223.181 177.337L222.938 177.429C221.922 175.454 220.904 173.573 220.106 171.475C218.79 168.014 217.729 164.404 216.443 160.965C214 154.432 219.209 168.865 216.281 160.705C216.665 160.643 216.912 160.582 217.29 160.483Z" fill="#CDC1FA"/>
<path d="M234.452 193.924C236.763 195.522 237.541 196.312 240.423 196.165C239.605 196.775 238.262 197.306 237.247 197.354L237.306 197.167C237.747 197.065 238.173 196.988 238.589 196.811C238.292 196.547 237.673 196.668 237.271 196.469C236.081 195.879 235.028 195.132 234.452 193.924Z" fill="#CDC1FA"/>
<path d="M224.767 181.754C224.981 181.91 225.156 182.057 225.399 182.164C226.161 183.742 227.033 185.264 228.01 186.719L227.878 186.65C227.699 186.555 227.251 186.316 227.132 186.17C226.305 185.162 225.134 182.946 224.767 181.754Z" fill="#CDC1FA"/>
<path d="M86.4854 257.249C85.7301 258.495 84.8239 259.647 83.7666 260.704C82.0674 262.403 80.1038 263.715 77.876 264.641C75.6481 265.547 73.3353 266 70.9375 266C68.5397 266 66.2269 265.547 63.999 264.641C61.7712 263.715 59.8076 262.403 58.1084 260.704C56.4092 259.005 55.097 257.041 54.1719 254.813C53.2656 252.586 52.8125 250.273 52.8125 247.875C52.8125 245.477 53.2656 243.164 54.1719 240.937C55.097 238.709 56.4092 236.745 58.1084 235.046C59.8076 233.347 61.7712 232.044 63.999 231.138C66.2269 230.213 68.5397 229.75 70.9375 229.75C73.3353 229.75 75.6481 230.213 77.876 231.138C80.1038 232.044 82.0674 233.347 83.7666 235.046C85.1826 236.462 86.3249 238.057 87.1934 239.832L80.708 243.032C80.1982 242.013 79.5091 241.059 78.6406 240.172C76.5072 238.057 73.9395 237 70.9375 237C67.9355 237 65.3678 238.067 63.2344 240.2C61.1198 242.315 60.0625 244.873 60.0625 247.875C60.0625 250.877 61.1198 253.445 63.2344 255.578C65.3678 257.693 67.9355 258.75 70.9375 258.75C73.9395 258.75 76.5072 257.683 78.6406 255.55C79.2826 254.908 79.8206 254.228 80.2549 253.511L86.4854 257.249ZM101.467 244.25C99.4655 244.25 97.7568 244.958 96.3408 246.374C94.9248 247.79 94.2168 249.499 94.2168 251.5C94.2168 253.501 94.9248 255.21 96.3408 256.626C97.7568 258.042 99.4655 258.75 101.467 258.75C103.468 258.75 105.177 258.042 106.593 256.626C108.009 255.21 108.717 253.501 108.717 251.5C108.717 249.499 108.009 247.79 106.593 246.374C105.177 244.958 103.468 244.25 101.467 244.25ZM115.967 266H108.717V264.046C108.169 264.367 107.603 264.65 107.018 264.896C105.243 265.632 103.393 266 101.467 266C99.541 266 97.6908 265.632 95.916 264.896C94.1413 264.159 92.5742 263.111 91.2148 261.752C89.8555 260.393 88.8076 258.826 88.0713 257.051C87.335 255.276 86.9668 253.426 86.9668 251.5C86.9668 249.574 87.335 247.724 88.0713 245.949C88.8076 244.174 89.8555 242.607 91.2148 241.248C92.5742 239.889 94.1413 238.841 95.916 238.104C97.6908 237.368 99.541 237 101.467 237C103.393 237 105.243 237.368 107.018 238.104C107.603 238.35 108.169 238.633 108.717 238.954V237H115.967V266ZM122.679 256.229C123.264 257.022 124.019 257.664 124.944 258.155C125.983 258.684 127.106 258.967 128.314 259.005H128.456C129.211 259.005 129.919 258.873 130.58 258.608C131.241 258.325 131.581 257.891 131.6 257.306C131.6 256.796 131.316 256.314 130.75 255.861C130.202 255.389 129.494 254.917 128.626 254.445C127.757 253.973 126.851 253.511 125.907 253.058C124.699 252.529 123.585 251.878 122.565 251.104C121.565 250.311 120.772 249.376 120.187 248.3C119.639 247.318 119.365 246.185 119.365 244.901V244.533C119.403 242.872 119.913 241.409 120.895 240.144C121.876 238.879 123.16 237.897 124.746 237.198C126.219 236.556 127.786 236.235 129.447 236.235H129.844C132.053 236.311 133.941 236.83 135.508 237.793C136.244 238.227 136.867 238.728 137.377 239.294L134.063 245.439C133.61 244.741 132.968 244.212 132.138 243.854C131.231 243.476 130.429 243.278 129.73 243.259H129.617C128.881 243.259 128.258 243.419 127.748 243.74C127.238 244.061 126.974 244.477 126.955 244.986C126.955 245.496 127.238 245.93 127.805 246.289C128.39 246.629 129.202 247.007 130.24 247.422C130.788 247.648 131.392 247.913 132.053 248.215C133.544 248.876 134.838 249.65 135.933 250.537C137.047 251.424 137.906 252.435 138.51 253.567C139.057 254.625 139.331 255.805 139.331 257.107V257.362C139.274 259.194 138.717 260.77 137.66 262.092C136.603 263.395 135.234 264.386 133.554 265.065C131.987 265.688 130.325 266 128.569 266H128.116C125.737 265.924 123.594 265.386 121.688 264.386C120.725 263.876 119.913 263.291 119.252 262.63L122.679 256.229ZM149.583 266H142.333V229.75H149.583V238.954C150.131 238.633 150.697 238.35 151.282 238.104C153.057 237.368 154.907 237 156.833 237C158.759 237 160.609 237.368 162.384 238.104C164.159 238.841 165.726 239.889 167.085 241.248C168.444 242.607 169.492 244.174 170.229 245.949C170.965 247.724 171.333 249.574 171.333 251.5V266H164.083V251.5C164.083 249.499 163.375 247.79 161.959 246.374C160.543 244.958 158.834 244.25 156.833 244.25C154.832 244.25 153.123 244.958 151.707 246.374C150.291 247.79 149.583 249.499 149.583 251.5V266ZM190.704 258.75C192.705 258.75 194.414 258.042 195.83 256.626C197.246 255.21 197.954 253.501 197.954 251.5C197.954 249.499 197.246 247.79 195.83 246.374C194.414 244.958 192.705 244.25 190.704 244.25C188.703 244.25 186.994 244.958 185.578 246.374C184.162 247.79 183.454 249.499 183.454 251.5C183.454 253.501 184.162 255.21 185.578 256.626C186.994 258.042 188.703 258.75 190.704 258.75ZM176.204 229.75H183.454V238.954C184.002 238.633 184.568 238.35 185.153 238.104C186.928 237.368 188.778 237 190.704 237C192.63 237 194.48 237.368 196.255 238.104C198.03 238.841 199.597 239.889 200.956 241.248C202.315 242.607 203.363 244.174 204.1 245.949C204.836 247.724 205.204 249.574 205.204 251.5C205.204 253.426 204.836 255.276 204.1 257.051C203.363 258.826 202.315 260.393 200.956 261.752C199.597 263.111 198.03 264.159 196.255 264.896C194.48 265.632 192.63 266 190.704 266C188.778 266 186.928 265.632 185.153 264.896C184.568 264.65 184.002 264.367 183.454 264.046V266H176.204V229.75ZM222.168 244.25C220.167 244.25 218.458 244.958 217.042 246.374C215.626 247.79 214.918 249.499 214.918 251.5C214.918 253.501 215.626 255.21 217.042 256.626C218.458 258.042 220.167 258.75 222.168 258.75C224.169 258.75 225.878 258.042 227.294 256.626C228.71 255.21 229.418 253.501 229.418 251.5C229.418 249.499 228.71 247.79 227.294 246.374C225.878 244.958 224.169 244.25 222.168 244.25ZM236.668 266H229.418V264.046C228.87 264.367 228.304 264.65 227.719 264.896C225.944 265.632 224.094 266 222.168 266C220.242 266 218.392 265.632 216.617 264.896C214.842 264.159 213.275 263.111 211.916 261.752C210.557 260.393 209.509 258.826 208.772 257.051C208.036 255.276 207.668 253.426 207.668 251.5C207.668 249.574 208.036 247.724 208.772 245.949C209.509 244.174 210.557 242.607 211.916 241.248C213.275 239.889 214.842 238.841 216.617 238.104C218.392 237.368 220.242 237 222.168 237C224.094 237 225.944 237.368 227.719 238.104C228.304 238.35 228.87 238.633 229.418 238.954V237H236.668V266ZM260.485 255.238L266.688 258.948C266.083 259.968 265.356 260.902 264.507 261.752C263.147 263.111 261.58 264.159 259.806 264.896C258.031 265.632 256.181 266 254.255 266C252.329 266 250.479 265.632 248.704 264.896C246.929 264.159 245.362 263.111 244.003 261.752C242.644 260.393 241.596 258.826 240.859 257.051C240.123 255.276 239.755 253.426 239.755 251.5C239.755 249.574 240.123 247.724 240.859 245.949C241.596 244.174 242.644 242.607 244.003 241.248C245.362 239.889 246.929 238.841 248.704 238.104C250.479 237.368 252.329 237 254.255 237C256.181 237 258.031 237.368 259.806 238.104C261.58 238.841 263.147 239.889 264.507 241.248C265.356 242.098 266.083 243.032 266.688 244.052L260.485 247.762C260.183 247.271 259.815 246.808 259.381 246.374C257.965 244.958 256.256 244.25 254.255 244.25C252.254 244.25 250.545 244.958 249.129 246.374C247.713 247.79 247.005 249.499 247.005 251.5C247.005 253.501 247.713 255.21 249.129 256.626C250.545 258.042 252.254 258.75 254.255 258.75C256.256 258.75 257.965 258.042 259.381 256.626C259.815 256.192 260.183 255.729 260.485 255.238ZM276.288 254.898V266H269.038V229.75H276.288V248.102L288.069 237H298.038L283.538 251.5L298.038 266H288.069L276.288 254.898Z" fill="url(#paint2_linear_1_53)"/>
<defs>
<linearGradient id="paint0_linear_1_53" x1="180" y1="-4.73458e-06" x2="341.535" y2="366.047" gradientUnits="userSpaceOnUse">
<stop stop-color="white"/>
<stop offset="0.504808" stop-color="#E7E1FC"/>
<stop offset="1" stop-color="#CFC2F9"/>
</linearGradient>
<linearGradient id="paint1_linear_1_53" x1="114.286" y1="103.829" x2="6.58604" y2="53.6655" gradientUnits="userSpaceOnUse">
<stop stop-color="white"/>
<stop offset="0.471154" stop-color="#4D3BF0"/>
<stop offset="0.942308" stop-color="#5E00FF"/>
</linearGradient>
<linearGradient id="paint2_linear_1_53" x1="51" y1="248" x2="339" y2="248" gradientUnits="userSpaceOnUse">
<stop stop-color="#CFC2F9"/>
<stop offset="0.5" stop-color="#A496F2"/>
</linearGradient>
</defs>
</svg>
