<svg width="614" height="399" viewBox="0 0 614 399" fill="none" xmlns="http://www.w3.org/2000/svg">
<path d="M336.982 20.5604C342.161 12.5644 354.537 2.62779 363.919 0.842879C371.229 -0.547862 378.4 0.183128 385.787 0.262553C390.036 0.308297 394.74 -0.289786 398.96 0.356313C401.691 0.750254 404.306 1.73386 406.62 3.23861C416.408 9.66798 415.55 23.2852 409.34 31.9904C405.516 37.3476 401.6 42.4245 397.594 47.647L378.637 72.3849C342.318 119.924 305.667 167.208 268.685 214.233C262.485 222.282 256.348 230.382 250.275 238.529C246.265 243.932 242.241 249.637 237.979 254.833C230.141 265.72 220.293 274.186 206.692 276.33C206.279 276.394 206.081 276.403 205.666 276.428C203.199 276.924 189.667 277.272 188.022 276.715C172.228 275.297 166.744 261.221 168.254 247.259C169.302 237.58 172.315 234.41 178.202 227.059C179.13 225.577 181.471 222.573 182.572 221.089C186.559 215.805 190.575 210.546 194.622 205.307C203.274 193.901 211.604 182.294 220.439 171.022C222.683 167.765 225.958 163.726 228.415 160.524L242.956 141.594L291.655 78.6613C302.786 63.8919 314.027 49.2054 325.377 34.603C327.508 31.8971 334.967 22.2131 336.982 20.5604Z" fill="#7969EA"/>
<path d="M193.096 213.233C193.135 213.502 193.092 213.336 193.306 213.702L193.375 213.456C197.414 213.092 201.017 211.52 205.224 211.099C220.391 209.583 234.602 207.979 249.076 202.965C280.445 192.007 305.634 168.161 318.292 137.44C320.297 132.556 322.009 127.522 323.703 122.436C329.1 106.231 334.912 85.8831 353.752 81.1069C355.198 80.7405 358.377 79.5926 359.659 80.2407L359.715 80.5555C358.623 81.5298 357.532 82.4164 356.514 83.481C354.991 85.0743 354.041 86.8328 352.093 87.9548C349.409 89.501 346.826 92.5979 344.621 94.8095C342.765 96.6704 340.726 98.329 338.98 100.3C333.25 106.768 329.062 115.646 327.123 123.998C326.73 125.694 326.724 128.061 327.713 129.553C328.954 130.085 331.598 129.193 332.439 128.281C338.454 121.754 344.082 114.852 349.074 107.52C351.152 104.468 354.32 101.194 356.628 98.2205C360.969 92.6903 364.901 86.8513 368.394 80.7496C369.493 82.5502 366.596 85.8702 366.428 87.0957L366.835 87.0513C367.511 85.6865 377.083 73.2627 378.434 71.9962L378.637 72.3849C342.318 119.924 305.667 167.208 268.685 214.233C262.485 222.282 256.348 230.382 250.275 238.529C246.265 243.932 242.241 249.637 237.979 254.833C230.141 265.72 220.293 274.186 206.692 276.33C206.279 276.394 206.081 276.403 205.666 276.428C203.199 276.924 189.667 277.272 188.022 276.715C172.228 275.297 166.744 261.221 168.254 247.259C169.302 237.58 172.315 234.41 178.202 227.059C179.13 225.577 181.471 222.573 182.572 221.089C186.559 215.805 190.575 210.546 194.622 205.307C203.274 193.901 211.604 182.294 220.439 171.022C224.021 169.747 239.453 147.185 241.589 146.573L241.847 147.228C242.241 146.291 242.022 146.393 242.728 146.002L243.056 146.277C243.142 147.504 242.48 148.316 241.762 149.265C237.395 152.552 232.066 159.962 228.705 164.342C224.735 169.515 220.131 175.055 216.69 180.558C212.79 183.937 209.407 189.44 206.036 193.571C203.126 197.137 200.44 201.936 197.614 205.655C196.191 207.815 192.918 211.477 191.906 213.745L192.427 213.568L192.065 213.832C192.631 213.388 192.473 213.384 193.096 213.233Z" fill="#CABEF9"/>
<path d="M172.972 242.66C175.895 233.656 185.1 222.496 192.458 216.417C192.631 216.276 193.24 216.181 193.471 216.149C194.404 216.633 196.948 222.466 197.647 223.795C199.961 228.429 202.767 231.149 206.246 234.808C209.291 238.012 212.586 241.46 215.428 244.881C219.295 249.539 227.419 257.532 224.677 264.191C223.807 266.303 220.29 267.991 219.05 269.625C217.605 270.126 212.02 271.945 210.654 272.254C205.126 273.499 194.839 273.763 189.265 272.809C184.757 272.015 180.751 269.457 178.135 265.7C173.266 258.843 171.611 250.864 172.972 242.66Z" fill="#7A68EC"/>
<path d="M181.418 241.06C184.219 240.857 185.988 245.213 187.368 247.373C191.403 253.695 199.232 255.543 203.057 262.218C205.3 266.134 199.381 266.558 197.235 267.682C194.409 267.9 191.139 268.988 188.223 268.189C185.02 267.284 182.305 265.151 180.666 262.254C177.822 257.229 176.568 252.502 177.926 246.651C178.285 245.106 179.99 241.852 181.418 241.06Z" fill="#4D3BF0"/>
<path d="M205.666 276.428C203.619 275.945 194.074 276.621 190.918 276.134C185.82 275.351 181.326 274.685 177.767 270.449C172.475 264.15 169.536 256.694 170.228 248.406C170.386 246.515 171.525 243.859 172.972 242.66C171.611 250.864 173.266 258.843 178.135 265.7C180.751 269.457 184.757 272.015 189.265 272.809C194.839 273.763 205.126 273.499 210.654 272.254C212.02 271.945 217.605 270.126 219.05 269.625L219.443 269.607C219.805 269.107 219.621 269.243 220.151 268.977L220.235 269.257C219.552 270.477 218.162 269.871 218.288 271.332L218.158 271.608L218.461 271.785C219.983 271.726 221.33 270.629 222.59 269.746C225.25 267.887 227.742 265.795 230.037 263.499C232.689 260.85 234.969 257.846 237.405 255.003C237.597 254.947 237.788 254.89 237.979 254.833C230.141 265.72 220.293 274.186 206.692 276.33C206.279 276.394 206.081 276.403 205.666 276.428Z" fill="#B5A8F5"/>
<path d="M178.202 227.059C178.25 228.627 173.813 233.693 172.743 235.664C167.333 245.623 167.73 260.051 175.153 268.915C176.208 270.14 179.154 273.553 180.535 274.252C181.943 274.967 186.574 275.618 188.022 276.715C172.228 275.297 166.744 261.221 168.254 247.259C169.302 237.58 172.315 234.41 178.202 227.059Z" fill="#CDC1FA"/>
<path d="M336.982 20.5604C338.676 20.184 341.045 15.2059 342.939 14.5803C342.91 14.9861 342.898 15.5512 342.792 15.9185C342.116 18.2646 344.885 22.323 346.377 24.262C350.02 28.9957 354.227 33.7182 357.859 38.5317C361.146 42.886 371.878 51.0513 374.085 55.5606L374.5 55.7233C374.941 55.899 375.023 55.9229 375.394 56.2377C375.683 57.3162 375.685 58.2579 376.372 58.98C378.573 59.2608 385.667 56.4837 386.939 56.4898L386.859 56.757C381.987 58.7206 374.349 59.9572 369.165 60.5585C351.856 62.566 334.525 64.6285 318.464 71.8774C291.919 84.0896 269.656 107.712 258.253 134.532C256.305 139.204 254.542 143.951 252.968 148.765C248.101 163.76 243.174 182.467 227.052 188.985C224.429 190.043 221.559 190.892 218.759 191.315C215.747 191.768 211.38 190.553 208.838 192.228C207.147 193.341 205.806 196.474 204.669 198.181C203.67 199.681 196.972 209.035 196.042 209.328C195.563 209.478 195.258 209.563 194.929 209.952C195.192 210.264 195.04 210.132 195.383 210.345C194.218 212.157 193.808 212.253 193.096 213.233C192.473 213.384 192.631 213.388 192.065 213.832L192.427 213.568L191.906 213.745C192.918 211.477 196.191 207.815 197.614 205.655C200.44 201.936 203.126 197.137 206.036 193.571C209.407 189.44 212.79 183.937 216.69 180.558C220.131 175.055 224.735 169.515 228.705 164.342C232.066 159.962 237.395 152.552 241.762 149.265C242.48 148.316 243.142 147.504 243.056 146.277L242.728 146.002C242.022 146.393 242.241 146.291 241.847 147.228L241.589 146.573C239.453 147.185 224.021 169.747 220.439 171.022C222.683 167.765 225.958 163.726 228.415 160.524L242.956 141.594L291.655 78.6614C302.786 63.8919 314.027 49.2054 325.377 34.603C327.508 31.8971 334.967 22.2131 336.982 20.5604Z" fill="#CFC2F9"/>
<path d="M216.69 180.558C220.131 175.055 224.735 169.515 228.705 164.342C232.066 159.962 237.395 152.552 241.762 149.265L241.411 150.087C242.338 150.394 244.314 150.781 244.55 151.933C246.157 159.77 237.38 167.824 232.792 173.025C228.861 177.478 225.872 180.571 221.318 184.192C218.835 186.133 215.322 187.715 212.461 189.153C212.78 188.345 213.868 186.108 213.771 185.567C213.428 186.304 213.161 187.135 212.502 187.544C212.358 186.065 216.048 181.893 216.69 180.558Z" fill="#7969EA"/>
<path d="M336.982 20.5604C342.161 12.5644 354.537 2.62779 363.919 0.842879C371.229 -0.547862 378.4 0.183128 385.787 0.262553C390.036 0.308297 394.74 -0.289786 398.96 0.356313C401.691 0.750254 404.306 1.73386 406.62 3.23861C416.408 9.66798 415.55 23.2852 409.34 31.9904C405.516 37.3476 401.6 42.4245 397.594 47.647L378.637 72.3849L378.434 71.9962C379.251 70.0918 381.696 68.4494 381.764 67.0252L381.436 66.7275L380.995 66.9212C380.467 68.0029 380.332 68.6003 379.135 68.9384L378.78 68.7052L378.635 67.968C378.871 66.9676 380.86 64.2294 381.441 63.1616C381.595 62.8773 383.109 61.8951 383.484 61.6438C383.767 61.0221 383.792 60.9404 384.192 60.398L384.538 60.3666C384.474 61.0125 384.399 61.183 384.226 61.8011C384.62 62.3976 384.57 62.434 385.207 62.7146L385.621 62.5068C386.6 60.1768 388.562 59.1202 389.251 57.909C390.432 55.8342 396.063 49.3911 396.32 48.0036C396.252 47.9776 396.183 47.9515 396.115 47.9255L395.835 47.8252C396.377 47.241 396.454 47.296 396.673 46.5776L396.372 46.162L396.472 46.573C396.029 47.1176 395.228 47.6219 394.508 47.6003L394.345 47.2503L394.224 48.4237L394.001 48.5762L393.6 48.3172C393.122 45.1386 399.788 39.4732 401.65 36.8954C405.73 31.2476 411.402 23.1471 410.116 15.8035C409.706 13.4654 407.824 10.1919 405.878 8.83708C404.613 7.95703 403.336 6.97662 401.962 6.27863C399.857 5.20923 396.857 4.82052 394.513 4.65052C389.777 4.30733 368.89 5.04287 365.22 6.29501C363.54 6.86851 361.871 6.51804 360.126 6.71126C359.13 6.82163 358.208 7.15003 357.233 7.28226L357.371 6.68554C354.678 7.75881 351.639 8.81022 348.983 9.95176C348.158 10.3063 343.61 13.4799 343.374 14.5377L342.939 14.5803C341.045 15.2059 338.676 20.184 336.982 20.5604Z" fill="#B5A8F5"/>
<path d="M154.156 65.672C153.659 60.8459 154.411 53.3711 155.552 48.5395C159.26 32.4576 169.239 18.5238 183.272 9.83571C196.14 2.07273 211.438 -0.618633 226.183 2.28597C229.817 3.01991 232.669 4.49532 236.004 5.23472C240.922 2.0288 248.537 1.21589 254.148 2.52038C265.142 5.12366 275.277 13.9362 282.344 22.4878C294.077 36.6838 295.782 58.6231 282.94 72.7281C280.049 75.9028 277.123 80.2446 273.991 83.0277C272.207 87.0784 270.471 91.2324 268.158 95.0778C261.317 106.45 250.441 116.36 238.137 121.449C232.683 123.705 225.978 125.239 220.169 125.574C218.525 125.911 215.389 125.995 213.69 125.98C181.179 125.686 153.916 98.1738 154.156 65.672ZM276.935 66.0425L277.084 67.1378L277.351 67.306C278.664 66.7623 280.304 62.4101 280.625 61.04C282.468 53.1822 282.315 44.5357 272.885 42.1152C274.94 47.6003 278.063 60.4973 276.935 66.0425Z" fill="#4D3BF0"/>
<path d="M236.004 5.23472C240.922 2.0288 248.537 1.21588 254.148 2.52037C265.142 5.12366 275.277 13.9362 282.344 22.4878C294.077 36.6838 295.782 58.6231 282.94 72.7281C280.049 75.9028 277.123 80.2446 273.991 83.0277C270.91 84.1626 268.388 86.0024 264.842 85.8777C250.365 85.3695 241.904 69.3073 234.3 58.9593C229.984 53.2011 225.179 47.8256 219.94 42.8926C216.255 39.3781 212.176 36.2905 208.225 33.0994C205.958 31.2678 201.125 28.5332 199.938 25.9304C199.476 24.9327 199.443 23.7893 199.847 22.7663C200.861 20.1382 208.863 17.5577 211.616 16.4981L227.236 10.4711C230.153 9.37872 234.875 7.79157 237.555 6.4732L237.873 6.31458C237.302 5.93111 236.614 5.57358 236.004 5.23472ZM276.935 66.0425L277.084 67.1378L277.351 67.306C278.664 66.7623 280.304 62.4101 280.625 61.04C282.468 53.1822 282.315 44.5357 272.885 42.1152C274.94 47.6003 278.063 60.4973 276.935 66.0425Z" fill="#ECEBFC"/>
<path d="M253.974 78.218C249.38 75.1628 243.394 66.9332 240.441 62.1864C239.34 60.4968 237.447 58.8066 236.375 57.1678C231.982 50.4496 226.331 45.2216 220.523 39.7354C216.196 35.6469 209.915 32.1426 206.338 27.4636C205.938 26.9397 206.17 23.9045 206.797 23.2864C212.863 19.2955 225.428 16.4917 231.326 22.1041C236.217 26.7592 238.939 29.2774 244.204 32.4025C249.301 35.4282 254.66 35.5477 260.13 34.1185C261.058 33.8556 266.79 32.1631 266.995 31.799L266.605 31.159C267.946 32.0036 271.435 39.1332 272.237 40.9634C272.501 41.569 272.466 41.6618 272.885 42.1152C274.94 47.6003 278.063 60.4973 276.935 66.0425C276.578 69.0575 276.084 72.0547 275.455 75.0248C275.347 75.4789 274.973 76.8955 274.931 77.2802C273.31 82.2239 264.157 83.74 259.757 81.9952C257.51 81.104 255.931 79.4961 253.974 78.218Z" fill="#B5A8F5"/>
<path d="M275.455 75.0248C271.169 76.8332 267.332 81.185 262.362 76.7167C256.77 72.1016 254.709 67.1326 251.843 61.2733C245.257 47.8042 253.204 49.1269 263.264 44.8245C264.807 44.1645 270.9 40.9097 272.237 40.9634C272.501 41.569 272.466 41.6619 272.885 42.1152C274.94 47.6003 278.063 60.4973 276.935 66.0425C276.578 69.0575 276.084 72.0547 275.455 75.0248Z" fill="#8170EC"/>
<path d="M253.974 78.218C253.844 76.4174 249.682 74.9561 249.811 72.4602C250.528 72.0358 250.688 72.5636 251.303 73.1596C255.139 76.8766 256.439 80.5594 262.139 81.2947C267.503 81.9867 270.729 80.4173 274.931 77.2802C273.31 82.2239 264.157 83.74 259.757 81.9952C257.51 81.104 255.931 79.4961 253.974 78.218Z" fill="#CDC1FA"/>
<path d="M154.156 65.672C154.954 64.3302 155.534 60.9934 156.082 59.3667C161.027 44.6871 175.662 43.1149 187.984 50.2437C203.736 59.3564 214.874 76.6866 220.206 93.8234C222.484 101.53 223.618 112.002 222.034 119.869C221.627 121.89 220.415 124.364 220.169 125.574C218.525 125.911 215.389 125.995 213.69 125.98C181.179 125.686 153.916 98.1738 154.156 65.672Z" fill="#CDC1FA"/>
<path d="M331.415 161.122C338.368 158.18 347.444 156.275 354.945 156.575C358.763 156.794 361.953 156.953 365.729 157.715C392.911 163.708 411.393 186.554 412.576 214.278C412.646 215.937 412.205 218.295 411.973 219.979C410.407 234.867 402.988 248.522 391.354 257.939C379.229 267.778 364.815 271.489 349.406 269.837C348.562 269.746 347.718 269.648 346.876 269.541C340.13 276.624 327.521 278.797 319.031 274.191C314.901 271.951 312.202 269.366 308.632 266.419C306.317 264.507 303.372 263.21 301.002 261.351C296.728 257.616 291.237 249.712 289.456 244.419C285.738 233.358 288.11 222.15 292.966 211.87C293.804 210.095 297.597 203.425 299.125 202.915C299.679 198.625 300.724 195.145 302.312 191.142C307.695 177.704 318.149 166.921 331.415 161.122Z" fill="#4D3BF0"/>
<path d="M299.125 202.915C299.945 202.592 301.461 200.896 302.182 200.223C316.432 186.916 331.74 208.34 339.218 217.437C342.538 221.508 346.148 225.334 350.019 228.884C352.971 231.599 356.118 234.032 359.36 236.387C363.204 239.178 374.789 246.146 376.668 249.721C377.108 250.554 377.178 251.742 376.821 252.614C375.062 256.901 352.21 265.738 346.876 269.541C340.13 276.624 327.521 278.797 319.031 274.191C314.901 271.951 312.202 269.366 308.632 266.419C306.317 264.507 303.372 263.21 301.002 261.351C296.728 257.616 291.237 249.712 289.456 244.419C285.738 233.358 288.11 222.15 292.966 211.87C293.804 210.095 297.597 203.425 299.125 202.915Z" fill="#ECEAFD"/>
<path d="M309.982 201.158C315.004 200.553 315.729 202.915 319.799 202.881L318.627 203.841C319.243 204.292 319.706 204.756 320.257 205.28C319.942 204.647 319.956 204.61 319.812 203.907L320.064 203.557L320.806 203.514L320.344 203.636L320.374 203.843C322.314 205.168 322.658 204.506 324.383 206.472C325.839 208.133 326.407 209.943 327.669 211.411L327.919 211.017L328.147 211.019L328.315 212.328C328.868 212.908 329.463 213.629 330.154 213.982L329.704 212.947C331.89 214.326 337.081 220.694 338.817 222.928C346.419 232.712 356.318 238.702 366.14 245.866C366.655 246.242 366.894 248.162 367.353 248.875C367.699 248.451 367.485 248.547 367.936 248.449C368.419 249.403 368.455 250.912 368.569 252.029C366.489 254.619 365.712 254.635 362.51 255.754C360.36 256.699 358.799 257.008 356.512 257.475C348.939 259.023 343.409 253.165 337.522 249.014C330.719 244.216 325.455 245.361 317.638 247.113C315.901 247.502 314.203 248.276 312.44 248.565C310.317 247.735 306.603 241.594 305.398 239.64C300.869 232.291 296.963 216.652 299.261 208.183C303.125 204.959 304.657 202.125 309.982 201.158Z" fill="#A294F1"/>
<path d="M365.729 157.715C392.911 163.707 411.393 186.554 412.576 214.278C412.646 215.937 412.205 218.295 411.973 219.979C411.292 221.11 411.133 222.257 410.708 223.502C409.322 227.564 407.658 229.988 404.247 232.605C398.104 232.919 396.445 231.235 391.52 227.83C385.253 222.767 382.374 218.866 377.793 212.478C375.71 209.378 373.851 206.135 372.228 202.772C371.709 202.544 371.336 202.232 370.881 201.9C370.722 200.159 367.233 197.082 366.983 192.683L367.501 192.487C367.615 191.841 367.583 191.638 367.563 190.99C367.429 189.595 365.684 184.92 365.277 182.319C364.377 176.557 363.979 170.505 364.289 164.666C364.387 162.809 365.097 160.439 365.311 158.016L365.729 157.715Z" fill="#FDFDFE"/>
<path d="M367.563 190.99C369.17 195.908 370.458 198.291 372.228 202.772C371.709 202.544 371.336 202.232 370.881 201.9C370.722 200.159 367.233 197.082 366.983 192.683L367.501 192.487C367.615 191.841 367.583 191.638 367.563 190.99Z" fill="#CDC1FA"/>
<path d="M331.415 161.122C338.368 158.18 347.444 156.275 354.945 156.575C358.763 156.794 361.953 156.953 365.729 157.715L365.311 158.016C365.097 160.439 364.387 162.809 364.289 164.666C363.979 170.505 364.377 176.557 365.277 182.319C365.684 184.92 367.429 189.595 367.563 190.99C367.583 191.638 367.615 191.841 367.501 192.487L366.983 192.683C367.233 197.082 370.722 200.159 370.881 201.9C371.336 202.232 371.709 202.544 372.228 202.772C373.851 206.135 375.71 209.378 377.793 212.478C382.374 218.866 385.253 222.767 391.52 227.83C396.445 231.235 398.104 232.919 404.247 232.605C402.503 233.905 399.64 235.036 397.478 235.138C383.082 237.389 366.653 226.269 356.924 216.399C344.089 203.377 334.017 186.047 331.616 167.722C331.354 165.717 331.427 163.17 331.415 161.122Z" fill="#AC9EF3"/>
<path d="M354.945 156.575C358.763 156.794 361.953 156.953 365.729 157.715L365.311 158.016C365.097 160.439 364.387 162.809 364.289 164.666C363.979 170.505 364.377 176.557 365.277 182.319C365.684 184.92 367.429 189.595 367.563 190.99C367.583 191.638 367.615 191.841 367.501 192.487L366.983 192.683C364.816 188.475 362.647 184.467 360.948 179.998C358.144 172.622 355.881 164.93 353.14 157.602C347.935 143.683 359.036 174.436 352.795 157.048C353.613 156.916 354.141 156.787 354.945 156.575Z" fill="#CDC1FA"/>
<path d="M391.52 227.83C396.445 231.235 398.104 232.919 404.247 232.605C402.503 233.905 399.64 235.036 397.478 235.138L397.603 234.74C398.543 234.524 399.451 234.36 400.337 233.982C399.704 233.42 398.384 233.677 397.528 233.254C394.993 231.995 392.749 230.404 391.52 227.83Z" fill="#CDC1FA"/>
<path d="M370.881 201.9C371.336 202.232 371.709 202.544 372.228 202.772C373.851 206.135 375.71 209.378 377.793 212.478L377.51 212.332C377.128 212.13 376.175 211.62 375.92 211.308C374.158 209.16 371.662 204.44 370.881 201.9Z" fill="#CDC1FA"/>
<path d="M86.8779 373.575C85.029 376.626 82.8102 379.446 80.2217 382.034C76.0615 386.194 71.2542 389.407 65.7998 391.672C60.3454 393.891 54.6829 395 48.8125 395C42.9421 395 37.2796 393.891 31.8252 391.672C26.3708 389.407 21.5635 386.194 17.4033 382.034C13.2432 377.874 10.0306 373.067 7.76562 367.612C5.54688 362.158 4.4375 356.495 4.4375 350.625C4.4375 344.755 5.54688 339.092 7.76562 333.638C10.0306 328.183 13.2432 323.376 17.4033 319.216C21.5635 315.056 26.3708 311.866 31.8252 309.647C37.2796 307.382 42.9421 306.25 48.8125 306.25C54.6829 306.25 60.3454 307.382 65.7998 309.647C71.2542 311.866 76.0615 315.056 80.2217 319.216C83.6885 322.683 86.485 326.589 88.6113 330.934L72.7334 338.769C71.4854 336.272 69.7982 333.938 67.6719 331.766C62.4486 326.589 56.1621 324 48.8125 324C41.4629 324 35.1764 326.612 29.9531 331.835C24.776 337.012 22.1875 343.275 22.1875 350.625C22.1875 357.975 24.776 364.261 29.9531 369.484C35.1764 374.661 41.4629 377.25 48.8125 377.25C56.1621 377.25 62.4486 374.638 67.6719 369.415C69.2435 367.843 70.5609 366.179 71.624 364.423L86.8779 373.575ZM123.557 341.75C118.657 341.75 114.474 343.483 111.007 346.95C107.54 350.417 105.807 354.6 105.807 359.5C105.807 364.4 107.54 368.583 111.007 372.05C114.474 375.517 118.657 377.25 123.557 377.25C128.456 377.25 132.64 375.517 136.106 372.05C139.573 368.583 141.307 364.4 141.307 359.5C141.307 354.6 139.573 350.417 136.106 346.95C132.64 343.483 128.456 341.75 123.557 341.75ZM159.057 395H141.307V390.216C139.966 391.002 138.579 391.695 137.146 392.296C132.801 394.099 128.271 395 123.557 395C118.842 395 114.312 394.099 109.967 392.296C105.622 390.493 101.785 387.928 98.457 384.6C95.1289 381.271 92.5635 377.435 90.7607 373.09C88.958 368.745 88.0566 364.215 88.0566 359.5C88.0566 354.785 88.958 350.255 90.7607 345.91C92.5635 341.565 95.1289 337.729 98.457 334.4C101.785 331.072 105.622 328.507 109.967 326.704C114.312 324.901 118.842 324 123.557 324C128.271 324 132.801 324.901 137.146 326.704C138.579 327.305 139.966 327.998 141.307 328.784V324H159.057V395ZM175.489 371.079C176.922 373.021 178.771 374.592 181.036 375.794C183.578 377.088 186.329 377.782 189.287 377.874H189.634C191.483 377.874 193.216 377.55 194.834 376.903C196.452 376.21 197.284 375.147 197.33 373.714C197.33 372.466 196.637 371.287 195.25 370.178C193.91 369.022 192.176 367.867 190.05 366.711C187.924 365.555 185.705 364.423 183.394 363.313C180.435 362.019 177.708 360.424 175.212 358.529C172.762 356.588 170.821 354.3 169.388 351.665C168.047 349.261 167.377 346.488 167.377 343.345V342.443C167.469 338.376 168.717 334.793 171.121 331.696C173.525 328.599 176.668 326.196 180.551 324.485C184.156 322.914 187.993 322.128 192.061 322.128H193.031C198.439 322.313 203.062 323.584 206.898 325.941C208.701 327.005 210.227 328.229 211.475 329.616L203.362 344.662C202.253 342.952 200.681 341.658 198.647 340.779C196.429 339.855 194.464 339.369 192.754 339.323H192.477C190.674 339.323 189.148 339.716 187.9 340.502C186.652 341.288 186.005 342.305 185.959 343.553C185.959 344.801 186.652 345.864 188.039 346.742C189.472 347.574 191.46 348.499 194.002 349.516C195.342 350.07 196.822 350.717 198.439 351.457C202.091 353.075 205.257 354.97 207.938 357.143C210.666 359.315 212.769 361.788 214.248 364.562C215.589 367.15 216.259 370.039 216.259 373.229V373.853C216.12 378.336 214.757 382.196 212.168 385.432C209.579 388.621 206.228 391.048 202.114 392.712C198.278 394.237 194.21 395 189.911 395H188.802C182.978 394.815 177.731 393.498 173.062 391.048C170.705 389.8 168.717 388.367 167.1 386.749L175.489 371.079ZM241.358 395H223.608V306.25H241.358V328.784C242.699 327.998 244.086 327.305 245.519 326.704C249.864 324.901 254.394 324 259.108 324C263.823 324 268.353 324.901 272.698 326.704C277.043 328.507 280.88 331.072 284.208 334.4C287.536 337.729 290.102 341.565 291.904 345.91C293.707 350.255 294.608 354.785 294.608 359.5V395H276.858V359.5C276.858 354.6 275.125 350.417 271.658 346.95C268.191 343.483 264.008 341.75 259.108 341.75C254.209 341.75 250.025 343.483 246.559 346.95C243.092 350.417 241.358 354.6 241.358 359.5V395ZM342.034 377.25C346.934 377.25 351.117 375.517 354.584 372.05C358.051 368.583 359.784 364.4 359.784 359.5C359.784 354.6 358.051 350.417 354.584 346.95C351.117 343.483 346.934 341.75 342.034 341.75C337.134 341.75 332.951 343.483 329.484 346.95C326.018 350.417 324.284 354.6 324.284 359.5C324.284 364.4 326.018 368.583 329.484 372.05C332.951 375.517 337.134 377.25 342.034 377.25ZM306.534 306.25H324.284V328.784C325.625 327.998 327.011 327.305 328.444 326.704C332.789 324.901 337.319 324 342.034 324C346.749 324 351.279 324.901 355.624 326.704C359.969 328.507 363.806 331.072 367.134 334.4C370.462 337.729 373.027 341.565 374.83 345.91C376.633 350.255 377.534 354.785 377.534 359.5C377.534 364.215 376.633 368.745 374.83 373.09C373.027 377.435 370.462 381.271 367.134 384.6C363.806 387.928 359.969 390.493 355.624 392.296C351.279 394.099 346.749 395 342.034 395C337.319 395 332.789 394.099 328.444 392.296C327.011 391.695 325.625 391.002 324.284 390.216V395H306.534V306.25ZM419.066 341.75C414.167 341.75 409.983 343.483 406.517 346.95C403.05 350.417 401.316 354.6 401.316 359.5C401.316 364.4 403.05 368.583 406.517 372.05C409.983 375.517 414.167 377.25 419.066 377.25C423.966 377.25 428.149 375.517 431.616 372.05C435.083 368.583 436.816 364.4 436.816 359.5C436.816 354.6 435.083 350.417 431.616 346.95C428.149 343.483 423.966 341.75 419.066 341.75ZM454.566 395H436.816V390.216C435.476 391.002 434.089 391.695 432.656 392.296C428.311 394.099 423.781 395 419.066 395C414.352 395 409.822 394.099 405.477 392.296C401.132 390.493 397.295 387.928 393.967 384.6C390.639 381.271 388.073 377.435 386.271 373.09C384.468 368.745 383.566 364.215 383.566 359.5C383.566 354.785 384.468 350.255 386.271 345.91C388.073 341.565 390.639 337.729 393.967 334.4C397.295 331.072 401.132 328.507 405.477 326.704C409.822 324.901 414.352 324 419.066 324C423.781 324 428.311 324.901 432.656 326.704C434.089 327.305 435.476 327.998 436.816 328.784V324H454.566V395ZM512.878 368.652L528.062 377.735C526.583 380.231 524.804 382.52 522.724 384.6C519.396 387.928 515.559 390.493 511.214 392.296C506.869 394.099 502.339 395 497.624 395C492.909 395 488.379 394.099 484.034 392.296C479.689 390.493 475.853 387.928 472.524 384.6C469.196 381.271 466.631 377.435 464.828 373.09C463.025 368.745 462.124 364.215 462.124 359.5C462.124 354.785 463.025 350.255 464.828 345.91C466.631 341.565 469.196 337.729 472.524 334.4C475.853 331.072 479.689 328.507 484.034 326.704C488.379 324.901 492.909 324 497.624 324C502.339 324 506.869 324.901 511.214 326.704C515.559 328.507 519.396 331.072 522.724 334.4C524.804 336.48 526.583 338.769 528.062 341.265L512.878 350.348C512.138 349.146 511.237 348.013 510.174 346.95C506.707 343.483 502.524 341.75 497.624 341.75C492.724 341.75 488.541 343.483 485.074 346.95C481.607 350.417 479.874 354.6 479.874 359.5C479.874 364.4 481.607 368.583 485.074 372.05C488.541 375.517 492.724 377.25 497.624 377.25C502.524 377.25 506.707 375.517 510.174 372.05C511.237 370.987 512.138 369.854 512.878 368.652ZM551.567 367.82V395H533.817V306.25H551.567V351.18L580.411 324H604.817L569.317 359.5L604.817 395H580.411L551.567 367.82Z" fill="url(#paint0_linear_1_44)"/>
<defs>
<linearGradient id="paint0_linear_1_44" x1="0" y1="343.5" x2="614" y2="343.5" gradientUnits="userSpaceOnUse">
<stop stop-color="#CFC2F9"/>
<stop offset="0.5" stop-color="#A496F2"/>
</linearGradient>
</defs>
</svg>
